<?xml version="1.0" standalone="no"?>
<!DOCTYPE svg PUBLIC "-//W3C//DTD SVG 20010904//EN"
 "http://www.w3.org/TR/2001/REC-SVG-20010904/DTD/svg10.dtd">
<svg version="1.0" xmlns="http://www.w3.org/2000/svg"
 width="509.000000pt" height="490.000000pt" viewBox="0 0 509.000000 490.000000"
 preserveAspectRatio="xMidYMid meet">

<g transform="translate(0.000000,490.000000) scale(0.100000,-0.100000)"
fill="#000000" stroke="none">
<path d="M2300 4439 c-325 -37 -655 -158 -915 -336 -99 -67 -114 -87 -85 -105
11 -7 39 6 110 55 366 249 801 368 1239 336 385 -27 699 -144 1057 -394 9 -7
19 -5 30 7 24 23 14 32 -116 118 -389 253 -872 370 -1320 319z"/>
<path d="M2155 4206 c-290 -61 -561 -189 -787 -373 -99 -80 -254 -246 -331
-353 -81 -114 -204 -359 -247 -490 -29 -89 -70 -268 -70 -304 0 -26 49 -21 54
7 3 12 13 60 22 107 36 185 144 440 260 612 259 382 658 649 1107 741 105 21
107 22 107 49 0 16 -1 28 -2 27 -2 0 -52 -11 -113 -23z"/>
<path d="M2760 4201 c0 -25 3 -27 108 -48 149 -31 277 -75 417 -143 513 -251
872 -733 969 -1302 6 -32 11 -38 31 -38 30 0 31 4 5 128 -41 202 -140 442
-256 620 -271 415 -709 707 -1196 795 l-78 15 0 -27z"/>
<path d="M876 3610 c-186 -252 -311 -563 -361 -895 -22 -147 -23 -423 0 -570
47 -315 169 -620 352 -879 55 -78 55 -78 75 -58 20 20 20 20 -29 88 -371 516
-465 1210 -246 1804 63 170 203 429 276 508 l21 22 -21 22 -21 21 -46 -63z"/>
<path d="M4087 3652 c-14 -16 -9 -26 59 -127 395 -588 443 -1336 128 -1967
-52 -103 -110 -200 -166 -276 -40 -54 -40 -54 -21 -74 20 -19 20 -19 70 49
184 250 309 560 358 888 23 147 23 423 0 570 -45 301 -152 582 -313 825 -84
128 -93 136 -115 112z"/>
<path d="M1879 3060 c-232 -36 -406 -187 -485 -420 -15 -43 -19 -83 -18 -180
0 -109 4 -134 26 -196 69 -191 216 -328 408 -380 88 -24 255 -24 333 -1 l57
18 62 -51 61 -52 20 21 c12 11 19 22 16 24 -2 2 -91 74 -197 161 -159 130
-195 156 -207 146 -8 -7 -15 -18 -15 -25 0 -7 45 -50 100 -95 56 -46 97 -87
93 -91 -18 -18 -152 -29 -229 -18 -225 31 -388 167 -455 379 -26 84 -28 233
-4 317 54 186 199 329 385 378 71 19 220 19 293 0 251 -65 422 -305 403 -565
-5 -75 -40 -210 -54 -210 -4 0 -68 50 -142 111 l-134 110 -17 -23 c-10 -13
-15 -26 -11 -29 17 -14 398 -323 410 -332 9 -7 19 -5 33 10 l20 20 -56 43
c-38 29 -55 49 -51 59 3 9 15 43 27 76 27 75 37 237 20 327 -41 212 -216 398
-426 452 -79 20 -196 27 -266 16z"/>
<path d="M2870 2830 l0 -210 278 0 c271 0 278 1 328 24 161 75 163 295 3 377
-35 17 -61 19 -324 19 l-285 0 0 -210z m597 134 c97 -72 98 -205 1 -264 -31
-18 -51 -20 -285 -20 l-253 0 0 155 0 156 254 -3 c240 -3 256 -4 283 -24z"/>
<path d="M2870 2100 l0 -210 30 0 30 0 0 180 0 180 243 0 242 0 90 -166 c113
-210 107 -201 133 -183 21 15 19 18 -86 212 l-107 197 -287 0 -288 0 0 -210z"/>
<path d="M725 2143 c28 -199 130 -471 245 -658 256 -416 685 -721 1164 -824
126 -28 136 -27 136 4 0 14 -3 25 -6 25 -3 0 -50 9 -103 20 -453 92 -867 377
-1125 773 -73 111 -155 284 -194 407 -26 81 -37 127 -68 278 -3 16 -11 22 -30
22 -26 0 -26 -1 -19 -47z"/>
<path d="M4250 2133 c-50 -254 -131 -458 -258 -653 -254 -392 -672 -678 -1123
-770 -53 -11 -100 -20 -103 -20 -3 0 -6 -11 -6 -25 0 -32 13 -32 150 -1 457
104 852 375 1115 766 131 195 249 494 280 713 7 46 6 47 -18 47 -23 0 -27 -6
-37 -57z"/>
<path d="M1294 859 c-18 -20 -18 -21 6 -40 72 -57 219 -147 326 -199 558 -275
1220 -275 1778 0 107 52 254 142 326 199 24 19 24 20 6 40 -18 20 -18 20 -70
-19 -390 -287 -916 -420 -1410 -355 -314 41 -645 173 -892 355 -52 39 -52 39
-70 19z"/>
</g>
</svg>
